# xmcd
#
# Track frame offsets: 
#        150
#        16685
#        31491
#        45893
#        64457
#        74145
#        89466
#        110912
#        127288
#        147335
#        165732
#        189276
#        210737
#        227568
#        242752
#        256407
#        281164
#        299287
#
# Disc length: 4202 seconds
#
# Revision: 14
# Processed by: cddbd v1.5.2PL0 Copyright (c) Steve Scherf et al.
# Submitted via: ExactAudioCopyFreeDBPlugin 1.0
#
DISCID=19106812
DTITLE=John Denver - The Essential John Denver [Disc 1]
DYEAR=2007
DGENRE=Country
TTITLE0=Leaving On A Jet Plane
TTITLE1=Rhymes And Reasons
TTITLE2=Take Me Home, Country Roads
TTITLE3=Poems, Prayers And Promises
TTITLE4=I Guess He'd Rather Be In Colorado
TTITLE5=Friends With You
TTITLE6=Rocky Mountain High
TTITLE7=Goodbye Again
TTITLE8=I'd Rather Be A Cowboy (Lady's Chains)
TTITLE9=Farewell Andromeda (Welcome To My Morning)
TTITLE10=Sunshine On My Shoulders
TTITLE11=Back Home Again
TTITLE12=Matthew
TTITLE13=Thank God I'm a Country Boy
TTITLE14=Annie's Song
TTITLE15=Sweet Surrender
TTITLE16=Looking For Space
TTITLE17=I'm Sorry
EXTD=YEAR: 2007
EXTT0=
EXTT1=
EXTT2=
EXTT3=
EXTT4=
EXTT5=
EXTT6=
EXTT7=
EXTT8=
EXTT9=
EXTT10=
EXTT11=
EXTT12=
EXTT13=
EXTT14=
EXTT15=
EXTT16=
EXTT17=
PLAYORDER=
